# xmcd
#
# Track frame offsets:
#	150
#	53598
#	94255
#	127398
#
# Disc length: 2276 seconds
#
# Revision: 1
# Processed by: cddbd v1.5.1PL0 Copyright (c) Steve Scherf et al.
# Submitted via: CDex 1.50Beta5
#
DISCID=3408e204
DTITLE=芝祐靖 - 雅道 〜芝祐靖 笛の世界〜
DYEAR=1990
DGENRE=(Minzoku)
TTITLE0=芝　祐靖・高田みどり/虚空
TTITLE1=芝祐靖/一行の賦
TTITLE2=芝祐靖/縹渺の響き?
TTITLE3=芝　祐靖・吉原すみれ/光凪
EXTD=
EXTT0=
EXTT1=
EXTT2=
EXTT3=
PLAYORDER=
